<svg viewBox="0 0 462.29 674.05" xmlns="http://www.w3.org/2000/svg"><path d="m349.63 635.08h112.66v-569.5h-462.29v569.5h23.96l39.42 38.63 246.49.33z" fill="#78d6cf"/><g fill="#fff"><circle cx="300.12" cy="635.31" r="19.43"/><circle cx="76.58" cy="635.31" r="19.43"/><circle cx="29.93" cy="196.27" r="19.43"/><circle cx="420.71" cy="176.84" r="19.43"/></g><path d="m-69.28 371.28h181.54v42.97h-181.54z" fill="#414042" transform="matrix(0 1 -1 0 414.25 371.28)"/><path d="m355.05 528.06h172.91v41.57h-172.91z" fill="#414042" transform="matrix(0 1 -1 0 990.35 107.35)"/><path d="m-43.34 549h129.65v42.97h-129.65z" fill="#414042" transform="matrix(0 1 -1 0 591.97 549)"/><path d="m328.97 307.05h225.06v41.57h-225.06z" fill="#414042" transform="matrix(0 1 -1 0 769.33 -113.67)"/><path d="m28.11 67.4h82.26v78.62h-82.26z" fill="#727272" transform="matrix(0 1 -1 0 175.95 37.48)"/><path d="m54.27 11.31h29.93v78.62h-29.93z" fill="#414042" transform="matrix(0 1 -1 0 119.86 -18.62)"/><path d="m23.14 456.55h265.49v92.01h-265.49z" fill="#414042" transform="matrix(0 1 -1 0 658.44 346.68)"/><path d="m275.31 190.5h54.25v54.25h-54.25z" fill="#61b8bc" transform="matrix(0 1 -1 0 520.05 -84.81)"/><path d="m255.63 19.68h147.85v108.49h-147.85z" fill="#e3e4e5" transform="matrix(0 1 -1 0 403.47 -255.63)"/><path d="m172.47 95.42h35.84v69.01h-35.84z" fill="#61b8bc" transform="matrix(0 1 -1 0 320.32 -60.46)"/><rect fill="#e3e4e5" height="72.64" rx="36.32" transform="matrix(0 1 -1 0 309.21 117.11)" width="72.64" x="59.73" y="176.84"/><rect fill="#e3e4e5" height="72.64" rx="36.32" transform="matrix(0 1 -1 0 390.83 198.74)" width="72.64" x="59.73" y="258.46"/><g fill="#fff" opacity=".9"><path d="m323.58 286.4c-69.68 0-95.62 95.79-24.67 143.12-73.56 49-42.73 141 24.77 141s100-91.51 24.59-141c74.5-46.89 45-143.12-24.69-143.12zm0 25.16c50.27 0 66.14 71.05 0 104.1-63.69-33.7-50.28-104.1 0-104.1zm0 131.81c67.45 29.78 48.86 102.76-.11 102.54s-64.23-73.63.11-102.54z" fill-rule="evenodd"/><path d="m316.73 338.26h13.91v42.16h-13.91z"/><path d="m316.94 491.27v-13.91h14.78v13.91h13.91v14.78h-13.91v13.91h-14.78v-13.91h-13.91v-14.78z" fill-rule="evenodd"/></g></svg>