<svg viewBox="0 0 408.1 322.95" xmlns="http://www.w3.org/2000/svg"><path d="m0 161.48a203.52 203.52 0 0 0 67.94 152 37.51 37.51 0 0 0 25.06 9.52h222.12a37.47 37.47 0 0 0 25-9.46 204 204 0 0 0 0-304 37.48 37.48 0 0 0 -25-9.47h-222.12a37.52 37.52 0 0 0 -25 9.47 203.5 203.5 0 0 0 -68 151.94z" fill="#99a1ad"/><path d="m165.7 90.27h133.46a25 25 0 0 0 0-50.08h-259.23a202.93 202.93 0 0 0 -11.9 18h271.13a7 7 0 0 1 0 14.08h-133.46a25 25 0 1 0 0 50.08h86.22a7 7 0 0 1 0 14.09h-86.22a25 25 0 1 0 0 50.08h86.22a7 7 0 1 1 0 14.08h-86.22a25 25 0 1 0 0 50.08h133.46a7 7 0 0 1 0 14.09h-271.16a205.89 205.89 0 0 0 11.9 18h259.26a25 25 0 0 0 0-50.09h-133.46a7 7 0 1 1 0-14.08h86.22a25 25 0 1 0 0-50.08h-86.22a7 7 0 1 1 0-14.08h86.22a25 25 0 0 0 0-50.09h-86.22a7 7 0 1 1 0-14.08z" fill="#ffe4d2"/><g fill="#fff"><circle cx="70.16" cy="161.48" r="37.94"/><circle cx="337.93" cy="161.48" r="37.94"/></g></svg>