<svg height="48" viewBox="0 0 48 48" width="48" xmlns="http://www.w3.org/2000/svg"><path d="m0 0h48v48h-48z" fill="none"/><path d="m33 32a13 13 0 1 0 -13-13 13 13 0 0 0 13 13zm0-22a9 9 0 1 1 -9 9 9 9 0 0 1 9-9z"/><path d="m36 23a2 2 0 0 0 2-2v-4a2 2 0 0 0 -4 0v4a2 2 0 0 0 2 2z"/><path d="m30 23a2 2 0 0 0 2-2v-4a2 2 0 0 0 -4 0v4a2 2 0 0 0 2 2z"/><path d="m42 40h-30v-6.3a8 8 0 0 0 6-7.7v-4a2 2 0 0 0 -2-2h-1v-4a2 2 0 0 0 -4 0v4h-2v-4a2 2 0 0 0 -4 0v4h-1a2 2 0 0 0 -2 2v4a8 8 0 0 0 6 7.7v6.3a4 4 0 0 0 4 4h30a2 2 0 0 0 0-4zm-36-14v-2h8v2a4 4 0 0 1 -8 0z"/></svg>