<svg viewBox="0 0 164.53 322.52" xmlns="http://www.w3.org/2000/svg"><rect fill="#78d6cf" height="164.53" rx="17.92" transform="matrix(0 -1 1 0 -49.97 214.5)" width="264.47" x="-49.97" y="49.97"/><g fill="#fff"><circle cx="20.05" cy="20.05" r="13.19"/><circle cx="144.48" cy="20.05" r="13.19"/><circle cx="20.05" cy="244.22" r="13.19"/><circle cx="144.48" cy="244.22" r="13.19"/></g><path d="m44.49 225.12h75.54v39.14h-75.54z" fill="#58595b"/><path d="m75.81 246.55h12.91v75.97h-12.91z" fill="#c1c4c6"/><path d="m44.49 246.55h12.91v75.97h-12.91z" fill="#c1c4c6"/><path d="m107.12 246.55h12.91v75.97h-12.91z" fill="#c1c4c6"/><circle cx="82.26" cy="44.63" fill="#58595b" r="37.77"/><path d="m82.26 99.61h82.26v82.26h-82.26z" fill="#43c7dd"/><path d="m0 99.61h82.26v82.26h-82.26z" fill="#58595b"/><circle cx="123.4" cy="140.74" fill="#cdcfd1" r="25.1"/><path d="m130 116.54a25.18 25.18 0 0 0 -13.27 0v17.57h-17.54a25.18 25.18 0 0 0 0 13.27h17.57v17.56a24.91 24.91 0 0 0 13.27 0v-17.56h17.57a25.18 25.18 0 0 0 0-13.27h-17.6z" fill="#fff"/></svg>