<svg viewBox="0 0 204.25 278.56" xmlns="http://www.w3.org/2000/svg"><rect fill="#7be1ef" height="278.56" rx="17.58" width="204.25"/><g fill="#43c7dd"><path d="m50.68 54.62h22.66v22.66h-22.66z"/><path d="m0 94.74h33.22v22.66h-33.22z"/><path d="m171.03 94.74h33.22v22.66h-33.22z"/><path d="m0 134.85h33.22v22.66h-33.22z"/><path d="m171.03 134.85h33.22v22.66h-33.22z"/><path d="m0 215.09h33.22v22.66h-33.22z"/><path d="m171.03 215.09h33.22v22.66h-33.22z"/><path d="m90.79 54.62h22.66v22.66h-22.66z"/><path d="m130.91 54.62h22.66v22.66h-22.66z"/><path d="m50.68 94.74h22.66v22.66h-22.66z"/><path d="m90.79 94.74h22.66v22.66h-22.66z"/><path d="m130.91 94.74h22.66v22.66h-22.66z"/><path d="m50.68 134.85h22.66v22.66h-22.66z"/><path d="m90.79 134.85h22.66v22.66h-22.66z"/><path d="m130.91 134.85h22.66v22.66h-22.66z"/><path d="m50.68 174.97h22.66v22.66h-22.66z"/><path d="m90.79 174.97h22.66v22.66h-22.66z"/><path d="m130.91 174.97h22.66v22.66h-22.66z"/><path d="m50.68 215.09h22.66v22.66h-22.66z"/><path d="m90.79 215.09h22.66v22.66h-22.66z"/><path d="m130.91 215.09h22.66v22.66h-22.66z"/></g></svg>