<svg viewBox="0 0 164.53 322.52" xmlns="http://www.w3.org/2000/svg"><rect fill="#78d6cf" height="164.53" rx="17.92" transform="matrix(0 -1 1 0 -49.97 214.5)" width="264.47" x="-49.97" y="49.97"/><g fill="#fff"><circle cx="20.05" cy="20.05" r="13.19"/><circle cx="144.48" cy="20.05" r="13.19"/><circle cx="20.05" cy="244.22" r="13.19"/><circle cx="144.48" cy="244.22" r="13.19"/></g><path d="m44.49 225.12h75.54v39.14h-75.54z" fill="#58595b"/><path d="m75.81 246.55h12.91v75.97h-12.91z" fill="#c1c4c6"/><path d="m44.49 246.55h12.91v75.97h-12.91z" fill="#c1c4c6"/><path d="m107.12 246.55h12.91v75.97h-12.91z" fill="#c1c4c6"/><path d="m82.26 175.79a68.72 68.72 0 1 1 68.74-68.71 68.78 68.78 0 0 1 -68.74 68.71zm0-124.43a55.72 55.72 0 1 0 55.74 55.72 55.77 55.77 0 0 0 -55.74-55.72z" fill="#fafcfc"/></svg>