<svg viewBox="0 0 373.55 223.01" xmlns="http://www.w3.org/2000/svg"><rect fill="#78d6cf" height="164.53" rx="17.92" width="373.55"/><circle cx="20.05" cy="19.93" fill="#fff" r="13.19"/><circle cx="353.5" cy="19.93" fill="#fff" r="13.19"/><path d="m117.04 125.61h139.47v39.14h-139.47z" fill="#58595b"/><rect fill="#f0f3ff" height="26.22" rx="13.11" width="65.15" x="154.2" y="13.2"/><g fill="#c1c4c6"><path d="m164.92 147.03h12.91v75.97h-12.91z"/><path d="m133.6 147.03h12.91v75.97h-12.91z"/><path d="m196.23 147.03h12.91v75.97h-12.91z"/><path d="m227.55 147.03h12.91v75.97h-12.91z"/></g><circle cx="20.05" cy="144.6" fill="#fff" r="13.19"/><circle cx="353.5" cy="144.6" fill="#fff" r="13.19"/><circle cx="87.12" cy="82.26" fill="#f0f3ff" r="67.08"/><circle cx="87.12" cy="82.26" fill="#3b3a45" r="53.09"/><circle cx="87.12" cy="82.26" fill="#808083" r="26.35"/><circle cx="286.42" cy="82.26" fill="#f0f3ff" r="67.08"/><circle cx="286.42" cy="82.26" fill="#3b3a45" r="53.09"/><circle cx="286.42" cy="82.26" fill="#808083" r="26.35"/></svg>